<?xml version="1.0" standalone="no"?>
<!DOCTYPE svg PUBLIC "-//W3C//DTD SVG 20010904//EN"
 "http://www.w3.org/TR/2001/REC-SVG-20010904/DTD/svg10.dtd">
<svg version="1.0" xmlns="http://www.w3.org/2000/svg"
 width="182.000000pt" height="182.000000pt" viewBox="0 0 182.000000 182.000000"
 preserveAspectRatio="xMidYMid meet">
<metadata>
Created by potrace 1.11, written by Peter Selinger 2001-2013
</metadata>
<g transform="translate(0.000000,182.000000) scale(0.100000,-0.100000)"
fill="#000000" stroke="none">
<path d="M531 1794 c-157 -55 -183 -144 -50 -168 39 -7 83 -36 98 -65 9 -15 1
-17 -87 -17 -53 1 -115 -5 -138 -12 -91 -27 -169 -105 -196 -196 -17 -54 -16
-237 1 -304 17 -67 48 -93 85 -69 13 9 37 40 54 69 16 29 51 73 76 98 l46 44
-16 -48 c-33 -97 -5 -223 76 -341 24 -35 37 -45 59 -45 35 0 54 22 70 80 28
97 97 193 145 202 18 3 19 -4 18 -126 -1 -71 -7 -146 -12 -167 -7 -23 -7 -53
-1 -77 4 -22 5 -46 0 -53 -23 -38 -20 -127 5 -190 17 -41 -123 -28 -189 17
-20 13 -40 24 -45 24 -5 0 -31 -14 -57 -30 -74 -47 -171 -39 -255 22 -15 10
-21 10 -34 -4 -23 -23 -5 -51 53 -80 65 -31 177 -31 242 0 l45 22 55 -21 c78
-30 195 -30 273 0 52 20 59 21 85 7 16 -8 57 -19 91 -26 69 -12 163 -1 216 27
27 14 32 13 79 -8 75 -36 175 -34 240 4 55 32 66 52 45 73 -13 14 -19 12 -53
-11 -49 -33 -73 -38 -140 -33 -38 3 -66 13 -95 33 -43 30 -36 31 -115 -13 -16
-9 -61 -18 -99 -20 l-69 -4 9 28 c9 30 9 111 1 244 -3 41 -8 141 -11 223 l-7
148 33 -14 c46 -19 90 -81 123 -173 35 -98 41 -106 79 -102 24 2 38 14 68 57
75 108 102 245 65 334 -16 36 -16 37 4 27 24 -14 94 -102 120 -151 10 -21 28
-43 38 -49 27 -14 69 4 76 32 21 93 25 123 25 204 0 166 -45 253 -164 314 -65
33 -74 35 -172 35 -57 0 -104 2 -104 5 2 27 83 80 123 80 32 0 67 31 67 60 0
26 -33 55 -100 88 -42 20 -74 28 -132 31 -102 4 -161 -17 -263 -93 -8 -6 -28
2 -60 24 -26 18 -70 41 -97 52 -59 22 -165 23 -227 2z m230 -61 c24 -11 65
-39 92 -63 l47 -42 48 40 c124 104 249 118 374 42 l31 -18 -43 -12 c-87 -24
-144 -85 -160 -172 l-7 -38 36 7 c20 5 86 8 146 8 94 0 116 -3 151 -22 81 -43
122 -115 131 -228 5 -69 -12 -216 -25 -214 -4 0 -30 35 -57 77 -66 100 -125
142 -201 142 -29 0 -55 -4 -58 -8 -3 -5 9 -22 26 -38 66 -63 85 -157 50 -257
-24 -66 -71 -142 -82 -131 -4 5 -15 32 -24 60 -26 79 -82 161 -130 189 -46 27
-102 32 -129 13 -15 -11 -15 -18 -5 -51 8 -28 9 -49 2 -77 -7 -24 -7 -44 -1
-55 5 -10 7 -40 4 -68 -3 -31 1 -64 11 -88 13 -35 13 -43 -1 -79 -8 -22 -11
-42 -6 -45 21 -13 31 -89 19 -142 -12 -58 -22 -63 -60 -33 -32 25 -46 25 -77
0 -33 -26 -37 -25 -51 5 -17 38 -15 126 4 153 13 19 14 28 4 52 -7 18 -10 45
-6 67 6 32 12 108 16 201 1 12 1 42 0 66 -1 24 3 53 9 64 9 17 6 22 -19 32
-93 38 -207 -59 -257 -218 -9 -29 -22 -51 -27 -49 -6 2 -29 39 -50 82 -34 67
-40 88 -40 144 -1 55 4 74 26 113 16 25 39 55 53 66 21 17 22 21 9 26 -24 9
-90 7 -118 -4 -40 -15 -113 -88 -153 -152 -20 -32 -40 -55 -44 -51 -4 4 -13
47 -19 94 -25 191 38 321 175 359 46 13 214 9 263 -6 22 -6 23 -5 16 32 -16
89 -75 155 -152 170 -45 9 -48 20 -11 40 95 49 185 55 270 17z"/>
<path d="M637 1366 c-16 -42 74 -85 141 -66 45 12 77 42 69 65 -8 19 -28 19
-53 0 -24 -18 -72 -18 -104 0 -32 18 -47 19 -53 1z"/>
<path d="M956 1365 c-15 -39 82 -83 143 -65 39 11 71 37 71 57 0 22 -27 26
-52 9 -28 -20 -78 -21 -104 -1 -25 19 -50 19 -58 0z"/>
<path d="M434 95 c-10 -25 2 -41 48 -64 56 -26 147 -28 202 -3 38 17 42 17 90
0 65 -22 158 -22 216 0 43 17 47 17 93 0 112 -42 287 -4 287 64 0 25 -30 23
-77 -5 -53 -31 -154 -30 -207 1 -46 27 -56 27 -103 -1 -53 -31 -154 -30 -207
1 -47 28 -48 28 -113 -4 -62 -31 -118 -29 -164 5 -33 25 -57 27 -65 6z"/>
</g>
</svg>
