<svg id="Layer_1" xmlns="http://www.w3.org/2000/svg" xmlns:xlink="http://www.w3.org/1999/xlink" x="0px" y="0px" viewBox="0 0 177.01 214.38">
  <style>
    .st0,.st1{clip-path:url(#SVGID_2_)}.st1{fill:#fff}
  </style>
  <defs>
    <rect id="SVGID_1_" x="4.94" y="5.11" width="166.61" height="204"/>
  </defs>
  <clipPath id="SVGID_2_">
    <use xlink:href="#SVGID_1_" overflow="visible"/>
  </clipPath>
  <path class="st0" d="M162.73 94.83c.61 1.16 1.88 1.83 3.17 1.66 1.3-.16 2.36-1.11 2.66-2.39 5.09-21.44 3.69-37.35-4.17-47.3-3.35-4.24-7.85-7.36-13.37-9.29-4.39-1.53-9.44-2.3-15.01-2.3-6.7 0-12.8 1.1-16.68 2.02.27-1.81.81-4.04 1.89-6.3 3.18-6.68 9.5-10.57 18.78-11.56 1.29-.14 2.37-1.06 2.7-2.31.33-1.26-.14-2.59-1.2-3.35-7.91-5.7-15.96-8.59-23.95-8.59-13.39 0-23.45 7.9-29.28 14.11-5.84-6.2-15.9-14.11-29.28-14.11-7.99 0-16.05 2.89-23.95 8.59-1.06.76-1.53 2.1-1.2 3.35s1.41 2.17 2.7 2.31c9.28.99 15.6 4.88 18.78 11.56 1.07 2.26 1.62 4.5 1.88 6.3-3.89-.91-9.99-2.02-16.68-2.02-5.57 0-10.62.78-15.01 2.3-5.52 1.92-10.02 5.05-13.37 9.29-7.86 9.95-9.26 25.86-4.18 47.3.3 1.28 1.36 2.23 2.66 2.39 1.29.17 2.56-.5 3.17-1.66 8.47-16.18 17.72-25.09 26.08-25.09.75 0 1.46.07 2.08.18-3.03 2.81-6.69 7.41-8.2 14.07-2.38 10.57 1.4 22.68 11.24 35.98.72.97 1.93 1.45 3.12 1.21 1.19-.23 2.14-1.12 2.44-2.3 2.39-9.24 9.51-30.74 23.9-30.74.3 0 .54.01.73.01.11 0 .21.01.3.01 1.27.37 2.1.74 2.63 1.03-1.02 2.19-1.6 5.05-1.6 8.12 0 2.79.47 5.43 1.32 7.53-1.27 2.22-1.97 5.11-1.97 8.25 0 2.61.51 5.11 1.45 7.2-1.75 2.37-2.77 5.73-2.77 9.37 0 3.11.76 6.03 2.09 8.3-2.13 2.82-3.4 7.3-3.4 12.44 0 5.11 1.26 9.51 3.36 12.33-9.44 2.7-21.92 1.14-27.78-4.71-1.57-1.57-4.36-1.57-5.92 0-3.79 3.79-9.39 5.97-15.35 5.97-5.97 0-11.57-2.17-15.36-5.97-1.63-1.64-4.29-1.64-5.92 0-1.64 1.64-1.64 4.29 0 5.93 5.35 5.35 13.11 8.42 21.28 8.42 6.79 0 13.29-2.12 18.36-5.9 5.64 3.97 13.4 5.95 21.17 5.95 7.79 0 15.58-1.99 21.22-5.99 5.37 3.77 13 5.94 21.2 5.94 8.18 0 15.79-2.17 21.16-5.91 11.49 8.55 29.43 7.71 39.66-2.51 1.64-1.63 1.64-4.29 0-5.93-1.64-1.64-4.29-1.64-5.93 0-7.9 7.89-22.82 7.89-30.71 0-1.57-1.57-4.35-1.57-5.93 0-3.68 3.68-10.67 5.97-18.25 5.97-3.36 0-6.59-.48-9.49-1.3 2.08-2.82 3.32-7.2 3.32-12.28 0-5.14-1.28-9.62-3.41-12.44 1.34-2.28 2.09-5.19 2.09-8.31 0-3.65-1.02-7-2.77-9.37.93-2.08 1.46-4.59 1.46-7.19 0-3.14-.71-6.03-1.98-8.25.85-2.1 1.32-4.74 1.32-7.53 0-3.08-.57-5.93-1.59-8.12.53-.3 1.36-.66 2.64-1.03.08 0 .19-.01.29-.01.19-.01.43-.01.72-.01 14.39 0 21.51 21.5 23.9 30.74.3 1.17 1.25 2.06 2.44 2.3 1.19.23 2.4-.24 3.12-1.21 9.84-13.31 13.62-25.41 11.24-35.98-1.51-6.66-5.16-11.25-8.2-14.07.63-.12 1.33-.19 2.08-.19 8.34 0 17.59 8.91 26.06 25.09M135.62 195.94c-6.28 6.27-22.95 6.27-29.23 0-1.64-1.64-4.29-1.64-5.93 0-6.28 6.27-22.94 6.28-29.23 0-1.63-1.63-4.29-1.64-5.93 0-6.28 6.27-18.15 6.27-24.43 0-1.64-1.64-4.29-1.64-5.92 0-1.64 1.63-1.64 4.29 0 5.92 4.83 4.83 11.49 7.25 18.14 7.25 5.41 0 10.82-1.6 15.24-4.79 9.51 6.33 25.61 6.32 35.09-.04 10.58 7.1 29.4 6.29 38.12-2.42 1.63-1.63 1.63-4.29 0-5.92-1.64-1.64-4.28-1.64-5.92 0"/>
  <path class="st1" d="M83.08 53.95c0 3.68-2.98 6.66-6.66 6.66s-6.66-2.98-6.66-6.66 2.98-6.66 6.66-6.66 6.66 2.98 6.66 6.66"/>
  <path class="st0" d="M78.83 53.95c0 1.33-1.08 2.41-2.41 2.41s-2.41-1.08-2.41-2.41 1.08-2.41 2.41-2.41c1.33.01 2.41 1.08 2.41 2.41"/>
  <path class="st1" d="M106.74 53.95c0 3.68-2.98 6.66-6.66 6.66s-6.66-2.98-6.66-6.66 2.98-6.66 6.66-6.66 6.66 2.98 6.66 6.66"/>
  <path class="st0" d="M102.49 53.95c0 1.33-1.08 2.41-2.41 2.41s-2.41-1.08-2.41-2.41 1.08-2.41 2.41-2.41c1.33.01 2.41 1.08 2.41 2.41"/>
</svg>
