<?xml version="1.0" standalone="no"?>
<!DOCTYPE svg PUBLIC "-//W3C//DTD SVG 20010904//EN"
 "http://www.w3.org/TR/2001/REC-SVG-20010904/DTD/svg10.dtd">
<svg version="1.0" xmlns="http://www.w3.org/2000/svg"
 width="900.000000pt" height="900.000000pt" viewBox="0 0 900.000000 900.000000"
 preserveAspectRatio="xMidYMid meet">
<metadata>
Created by potrace 1.11, written by Peter Selinger 2001-2013
</metadata>
<g transform="translate(0.000000,900.000000) scale(0.100000,-0.100000)"
fill="#000000" stroke="none">
<path d="M3060 8959 c-185 -20 -394 -86 -590 -184 -129 -65 -313 -185 -335
-219 -39 -59 -23 -146 35 -187 15 -10 75 -26 145 -38 371 -61 606 -218 740
-494 37 -77 94 -262 83 -272 -2 -2 -55 7 -118 20 -640 129 -1208 59 -1585
-195 -89 -60 -214 -176 -274 -254 -277 -359 -368 -893 -270 -1581 25 -178 86
-481 104 -514 43 -85 154 -102 216 -34 14 16 54 80 89 143 321 583 678 933
1004 981 41 6 96 8 121 4 l46 -6 -68 -72 c-175 -184 -285 -429 -314 -696 -32
-299 60 -666 258 -1026 66 -121 234 -374 274 -415 52 -51 136 -52 187 0 21 21
37 59 66 161 148 514 377 923 619 1105 167 125 381 177 508 123 27 -12 49 -24
49 -28 0 -3 -12 -42 -27 -86 -25 -75 -27 -92 -28 -260 0 -159 3 -189 23 -261
l24 -82 -21 -41 c-12 -22 -31 -80 -42 -128 -29 -121 -23 -312 13 -423 l24 -75
-37 -73 c-56 -110 -74 -194 -74 -347 0 -136 18 -223 66 -317 l19 -37 -30 -49
c-40 -65 -75 -161 -97 -263 -24 -116 -24 -353 1 -469 21 -100 65 -220 100
-271 l25 -37 -45 -11 c-98 -25 -245 -41 -374 -41 -328 0 -600 84 -773 238 -59
52 -102 72 -156 72 -57 0 -86 -14 -150 -71 -261 -234 -667 -305 -1011 -175
-107 39 -180 83 -267 156 -87 74 -119 90 -176 90 -151 0 -235 -167 -146 -292
29 -39 172 -152 261 -204 233 -137 537 -203 811 -176 221 22 425 88 585 190
48 30 92 55 97 55 6 0 39 -18 75 -40 346 -213 889 -271 1350 -147 129 35 255
87 351 145 l81 48 41 -26 c265 -167 669 -255 1030 -225 169 14 306 41 443 87
97 32 243 100 310 144 l30 20 54 -36 c408 -275 1029 -288 1454 -30 79 48 213
154 241 191 93 124 12 296 -139 296 -61 0 -90 -13 -150 -67 -113 -102 -253
-175 -413 -215 -126 -31 -360 -31 -485 0 -158 39 -281 102 -398 203 -77 66
-103 79 -161 79 -55 0 -95 -19 -164 -79 -73 -63 -229 -142 -347 -176 -215 -60
-516 -71 -727 -26 -51 11 -95 22 -97 24 -2 2 14 39 36 83 136 267 129 703 -15
946 l-34 58 29 63 c44 98 64 212 57 337 -7 128 -25 201 -75 300 l-38 76 24 74
c36 111 42 303 13 423 -11 48 -30 106 -42 128 l-21 41 22 80 c44 162 42 379
-5 524 -13 44 -25 82 -25 85 0 4 22 16 49 28 127 54 341 2 508 -123 241 -181
477 -603 619 -1105 29 -103 44 -140 66 -162 52 -51 135 -50 188 3 40 40 192
268 265 398 71 126 152 310 193 440 117 368 103 704 -41 1004 -56 115 -144
242 -216 311 -22 21 -41 42 -41 47 0 15 76 20 152 10 318 -45 673 -384 986
-942 39 -69 78 -138 89 -154 59 -94 180 -94 235 0 20 34 79 321 107 519 98
688 7 1222 -270 1581 -60 78 -185 194 -274 254 -373 252 -928 322 -1565 199
-58 -11 -113 -22 -123 -25 -16 -5 -17 -1 -11 33 13 77 57 200 95 272 138 258
365 402 724 462 70 12 130 28 145 38 58 41 74 128 35 187 -25 38 -213 159
-360 230 -672 329 -1336 206 -1927 -358 l-77 -73 -78 73 c-302 284 -600 448
-927 511 -126 25 -319 33 -436 20z m316 -2069 c181 -150 439 -156 626 -15 58
44 80 55 111 55 94 0 142 -95 90 -177 -40 -62 -213 -161 -330 -189 -89 -22
-256 -22 -346 -1 -144 35 -323 150 -347 222 -24 74 27 144 106 145 34 0 51 -7
90 -40z m1622 -15 c96 -72 182 -100 307 -100 129 1 224 36 324 120 34 27 52
35 83 35 79 0 132 -71 108 -145 -14 -44 -98 -114 -193 -162 -196 -98 -456 -99
-648 -2 -75 37 -171 110 -187 142 -26 49 -19 103 19 138 24 22 41 29 73 29 34
0 53 -9 114 -55z"/>
<path d="M2207 640 c-90 -49 -121 -173 -64 -259 42 -64 178 -166 302 -226 258
-127 544 -155 824 -80 98 27 233 85 312 135 l46 30 94 -49 c197 -104 411 -152
674 -152 262 0 471 47 673 151 l97 49 97 -49 c201 -104 410 -151 673 -151 255
0 464 45 656 142 95 47 203 123 248 174 105 120 25 304 -131 305 -62 0 -84 -9
-149 -65 -68 -58 -211 -129 -310 -154 -42 -11 -131 -25 -197 -31 -287 -28
-579 43 -733 179 -61 53 -100 71 -154 71 -54 0 -93 -18 -155 -72 -58 -51 -205
-123 -301 -147 -188 -48 -440 -47 -628 0 -99 25 -242 96 -310 154 -65 55 -87
65 -147 65 -55 0 -93 -19 -164 -82 -69 -61 -212 -132 -315 -154 -112 -25 -284
-23 -390 5 -132 35 -203 75 -354 198 -45 37 -138 43 -194 13z"/>
</g>
</svg>
