<svg xmlns="http://www.w3.org/2000/svg" x="0px" y="0px" viewBox="0 0 30 36.7">
  <path d="M23.5 34.4c-1.1 1.1-4.1 1.1-5.3 0-.3-.3-.8-.3-1.1 0-1.1 1.1-4.1 1.1-5.3 0-.3-.3-.8-.3-1.1 0-1.1 1.1-3.3 1.1-4.4 0-.3-.3-.8-.3-1.1 0-.3.3-.3.8 0 1.1.9.9 2.1 1.3 3.3 1.3 1 0 1.9-.3 2.7-.9 1.7 1.1 4.6 1.1 6.3 0 1.9 1.3 5.3 1.1 6.9-.4.3-.3.3-.8 0-1.1-.1-.3-.6-.3-.9 0m4.9-18.2c.1.2.3.3.6.3.2 0 .4-.2.5-.4.9-3.9.7-6.7-.8-8.5-.6-.8-1.4-1.3-2.4-1.7-.8-.3-1.7-.4-2.7-.4-1.2 0-2.3.2-3 .4 0-.3.1-.7.3-1.1.6-1.2 1.7-1.9 3.4-2.1.2 0 .4-.2.5-.4.1-.2 0-.5-.2-.6C23.2.7 21.7.2 20.3.2c-2.4 0-4.2 1.4-5.3 2.5C13.9 1.4 12.1 0 9.7 0 8.3 0 6.8.5 5.4 1.5c-.2.2-.3.4-.2.6.1.2.3.4.5.4 1.7.2 2.8.9 3.4 2.1.2.4.3.8.3 1.1-.7-.2-1.8-.4-3-.4-1 0-1.9.1-2.7.4-1 .3-1.8.9-2.4 1.7-1.4 1.8-1.7 4.7-.8 8.5.1.2.2.4.5.4.2 0 .5-.1.6-.3 1.5-2.9 3.2-4.5 4.7-4.5h.4c-.5.5-1.2 1.3-1.5 2.5-.4 1.9.3 4.1 2 6.5.1.2.3.3.6.2.2 0 .4-.2.4-.4.4-1.7 1.7-5.5 4.3-5.5h.2c.2.1.4.1.5.2-.2.4-.3.9-.3 1.5 0 .5.1 1 .2 1.4-.2.4-.4.9-.4 1.5 0 .5.1.9.3 1.3-.3.4-.5 1-.5 1.7 0 .6.1 1.1.4 1.5-.4.5-.6 1.3-.6 2.2 0 .9.2 1.7.6 2.2-1.7.5-3.9.2-5-.8-.3-.3-.8-.3-1.1 0-.7.7-1.7 1.1-2.8 1.1-1.1 0-2.1-.4-2.8-1.1-.3-.3-.8-.3-1.1 0-.3.3-.3.8 0 1.1 1 1 2.4 1.5 3.8 1.5 1.2 0 2.4-.4 3.3-1.1 1 .7 2.4 1.1 3.8 1.1s2.8-.4 3.8-1.1c1 .7 2.3 1.1 3.8 1.1s2.8-.4 3.8-1.1c2.1 1.5 5.3 1.4 7.1-.5.3-.3.3-.8 0-1.1-.3-.3-.8-.3-1.1 0-1.4 1.4-4.1 1.4-5.5 0-.3-.3-.8-.3-1.1 0-.7.7-1.9 1.1-3.3 1.1-.6 0-1.2-.1-1.7-.2.4-.5.6-1.3.6-2.2 0-.9-.2-1.7-.6-2.2.2-.4.4-.9.4-1.5 0-.7-.2-1.3-.5-1.7.2-.4.3-.8.3-1.3 0-.6-.1-1.1-.4-1.5.2-.4.2-.9.2-1.4 0-.6-.1-1.1-.3-1.5.1-.1.2-.1.5-.2h.2c2.6 0 3.9 3.9 4.3 5.5.1.2.2.4.4.4s.4 0 .6-.2c1.8-2.4 2.5-4.6 2-6.5-.3-1.2-.9-2-1.5-2.5h.4c1.8.1 3.5 1.7 5 4.7m-14.7-7c-.5.5-1.3.8-2 .8s-1.5-.3-2-.8c-.2-.2-.2-.5 0-.7.2-.2.5-.2.7 0 .7.7 2 .7 2.7 0 .2-.2.5-.2.7 0 .1.2.1.5-.1.7m6.6 0c-.5.5-1.2.8-2 .8s-1.5-.3-2-.8c-.2-.2-.2-.5 0-.7.2-.2.5-.2.7 0 .3.3.8.5 1.3.5s1-.2 1.4-.5c.2-.2.5-.2.7 0 .1.2.1.5-.1.7" fill-rule="evenodd" clip-rule="evenodd"/>
</svg>
